<?xml version="1.0" encoding="utf-8"?>
<!-- Generator: Adobe Illustrator 28.0.0, SVG Export Plug-In . SVG Version: 6.00 Build 0)  -->
<svg version="1.1" id="Layer_1" xmlns="http://www.w3.org/2000/svg" xmlns:xlink="http://www.w3.org/1999/xlink" x="0px" y="0px"
	 viewBox="0 0 165.07 60.53" style="enable-background:new 0 0 165.07 60.53;" xml:space="preserve">
<style type="text/css">
	.st0{fill:#8DC63F;}
	.st1{fill:#6D6E71;}
</style>
<g>
	<g>
		<polygon class="st0" points="28.72,0 0,0 0,47.47 13.9,60.53 60.46,60.53 60.46,30.34 50.84,30.27 50.84,50.91 25.42,50.91 
			9.69,35.32 9.69,9.62 28.72,9.62 		"/>
		<rect x="27.15" y="26.79" class="st0" width="8.04" height="8.04"/>
		<rect x="35.19" y="18.75" class="st0" width="8.04" height="8.04"/>
	</g>
	<g>
		<g>
			<path d="M86.65,31.04c0,6.99-4.56,11.95-11.25,11.95c-6.54,0-11.37-4.7-11.37-11.2c0-6.5,4.74-11.23,11.32-11.23
				c5.6,0,10.17,3.5,11.08,8.46h-6.16c-0.77-1.8-2.68-2.96-4.86-2.96c-3.2,0-5.35,2.31-5.35,5.72c0,3.38,2.12,5.69,5.35,5.69
				c2.24,0,4.17-1.09,4.84-2.73h-5.3v-3.71L86.65,31.04z"/>
			<path d="M97.63,35.92H95.5v6.53h-5.88V21.1h9.25c4.6,0,7.94,3.09,7.94,7.56c0,2.62-1.28,4.77-3.39,6.03l4.24,7.77h-6.57
				L97.63,35.92z M95.5,30.96h2.69c1.64,0,2.59-0.99,2.59-2.32c0-1.33-0.95-2.31-2.59-2.31H95.5V30.96z"/>
			<path d="M124.16,37.35v5.1h-13.92V21.1h13.66v5.08h-7.81v3.14h7.01v4.82h-7.01v3.2H124.16z"/>
			<path d="M141.45,37.35v5.1h-13.92V21.1h13.66v5.08h-7.81v3.14h7.01v4.82h-7.01v3.2H141.45z"/>
			<path d="M163.87,21.1v21.35h-4.86l-8.48-11.59v11.59h-5.7V21.1h5.15l8.2,11.2V21.1H163.87z"/>
		</g>
		<g>
			<path class="st1" d="M70.67,52.06h-2.86v8.33h-0.92v-8.33h-2.86v-0.87h6.65V52.06z"/>
			<path class="st1" d="M77.53,59.5v0.88h-5.27v-9.19h5.12v0.87h-4.2v3.14h3.86v0.86h-3.86v3.44H77.53z"/>
			<path class="st1" d="M78.65,55.79c0-2.75,1.97-4.74,4.7-4.74c2.09,0,3.76,1.22,4.32,3.14h-0.94c-0.53-1.4-1.78-2.24-3.38-2.24
				c-2.19,0-3.76,1.6-3.76,3.84c0,2.24,1.57,3.83,3.76,3.83c1.64,0,2.91-0.89,3.43-2.38h0.94c-0.56,2.02-2.23,3.28-4.37,3.28
				C80.62,60.53,78.65,58.55,78.65,55.79z"/>
			<path class="st1" d="M96.46,51.19v9.19h-0.92v-4.31h-5.12v4.31H89.5v-9.19h0.92v4h5.12v-4H96.46z"/>
			<path class="st1" d="M106.29,51.19v9.19h-0.78l-5.53-7.58v7.58h-0.9v-9.19h0.83l5.48,7.52v-7.52H106.29z"/>
			<path class="st1" d="M108.26,55.79c0-2.71,2.01-4.75,4.79-4.75c2.78,0,4.79,2.04,4.79,4.75c0,2.71-2.01,4.74-4.79,4.74
				C110.27,60.53,108.26,58.5,108.26,55.79z M116.9,55.79c0-2.2-1.62-3.85-3.85-3.85s-3.85,1.66-3.85,3.85
				c0,2.18,1.62,3.84,3.85,3.84S116.9,57.99,116.9,55.79z"/>
			<path class="st1" d="M124.91,59.52v0.87h-5.11v-9.19h0.92v8.33H124.91z"/>
			<path class="st1" d="M125.24,55.79c0-2.71,2.01-4.75,4.79-4.75c2.78,0,4.79,2.04,4.79,4.75c0,2.71-2.01,4.74-4.79,4.74
				C127.25,60.53,125.24,58.5,125.24,55.79z M133.88,55.79c0-2.2-1.62-3.85-3.85-3.85c-2.22,0-3.85,1.66-3.85,3.85
				c0,2.18,1.62,3.84,3.85,3.84C132.26,59.63,133.88,57.99,133.88,55.79z"/>
			<path class="st1" d="M145.36,55.9c-0.07,2.72-1.94,4.63-4.57,4.63c-2.7,0-4.64-2-4.64-4.74c0-2.73,1.96-4.73,4.62-4.73
				c2.19,0,4.04,1.38,4.44,3.31h-0.95c-0.39-1.43-1.81-2.41-3.47-2.41c-2.15,0-3.7,1.6-3.7,3.83c0,2.26,1.51,3.83,3.7,3.83
				c1.86,0,3.28-1.15,3.58-2.85h-3.94V55.9H145.36z"/>
			<path class="st1" d="M147.28,51.19h0.92v9.19h-0.92V51.19z"/>
			<path class="st1" d="M156.09,59.5v0.88h-5.27v-9.19h5.12v0.87h-4.2v3.14h3.86v0.86h-3.86v3.44H156.09z"/>
			<path class="st1" d="M157.36,57.59h0.94c0,1.24,0.99,2,2.39,2c1.27,0,2.24-0.7,2.24-1.77c0-1.2-1.15-1.46-2.41-1.75
				c-1.42-0.33-2.98-0.69-2.98-2.49c0-1.55,1.21-2.52,3.07-2.52c1.85,0,3.01,1.04,3.01,2.67h-0.91c0-1.11-0.88-1.79-2.11-1.79
				c-1.25,0-2.13,0.61-2.13,1.59c0,1.13,1.13,1.39,2.37,1.68c1.45,0.34,3.04,0.72,3.04,2.58c0,1.68-1.36,2.68-3.18,2.68
				C158.7,60.5,157.36,59.37,157.36,57.59z"/>
		</g>
	</g>
</g>
</svg>
